<svg xmlns="http://www.w3.org/2000/svg" version="1.1" xmlns:xlink="http://www.w3.org/1999/xlink" xmlns:svgjs="http://svgjs.dev/svgjs" width="1500" height="935" viewBox="0 0 1500 935"><g transform="matrix(1,0,0,1,-0.9090909090909918,0.3785425101214628)"><svg viewBox="0 0 396 247" data-background-color="#ffffff" preserveAspectRatio="xMidYMid meet" height="935" width="1500" xmlns="http://www.w3.org/2000/svg" xmlns:xlink="http://www.w3.org/1999/xlink"><g id="tight-bounds" transform="matrix(1,0,0,1,0.2400000000000091,-0.09999999999999432)"><svg viewBox="0 0 395.52 247.2" height="247.2" width="395.52"><g><svg></svg></g><g><svg viewBox="0 0 395.52 247.2" height="247.2" width="395.52"><mask id="76fef921-7c15-4af8-9495-dbbac34a2182"><rect width="395.52" height="247.2" fill="white"></rect><g transform="matrix(1,0,0,1,0,90.34153807442294)" id="clone"><svg viewBox="0 0 395.52 66.51692385115409" height="66.51692385115409" width="395.52"><g><svg viewBox="0 0 395.52 66.51692385115409" height="66.51692385115409" width="395.52"><g><svg viewBox="0 0 395.52 66.51692385115409" height="66.51692385115409" width="395.52"><g><svg viewBox="0 0 395.52 66.51692385115409" height="66.51692385115409" width="395.52"><g id="SvgjsG4901"><svg viewBox="0 0 395.52 66.51692385115409" height="66.51692385115409" width="395.52" id="SvgjsSvg4900"><g><svg viewBox="0 0 395.52 66.51692385115409" height="66.51692385115409" width="395.52"><g transform="matrix(1,0,0,1,0,0)"><svg width="395.52" viewBox="-1.75 -38.05 239.43 41.099999999999994" height="66.51692385115409" data-palette-color="url(#615c7cf0-a797-497b-b385-2732abc73bdc)"><path d="M9.05-0.05L9.05-0.05Q6.75-0.05 4.98-1.73 3.2-3.4 2.23-7.1 1.25-10.8 1.25-16.75L1.25-16.75Q1.25-20.8 2.55-24.15 3.85-27.5 6.15-29.93 8.45-32.35 11.5-33.68 14.55-35 18-35L18-35Q23.8-35 26.73-33.02 29.65-31.05 29.65-27.6L29.65-27.6Q29.65-25 28.43-23.78 27.2-22.55 24.98-22.15 22.75-21.75 19.75-21.75L19.75-21.75Q18.05-21.75 16.5-21.28 14.95-20.8 13.98-19.88 13-18.95 12.85-17.6L12.85-17.6Q12.85-17.35 12.8-17.15L12.8-17.15Q13.7-17.2 14.6-17.2 15.5-17.2 16.4-17.2L16.4-17.2Q18.6-17.2 20.73-17.18 22.85-17.15 24.6-16.82 26.35-16.5 27.4-15.6 28.45-14.7 28.45-12.95L28.45-12.95Q28.45-11.05 27.4-10.13 26.35-9.2 24.6-8.9 22.85-8.6 20.73-8.63 18.6-8.65 16.4-8.65L16.4-8.65Q15.6-8.65 14.83-8.63 14.05-8.6 13.25-8.6L13.25-8.6Q13.35-7.9 13.4-7.15 13.45-6.4 13.45-5.6L13.45-5.6Q13.45-4.2 13.08-2.93 12.7-1.65 11.75-0.85 10.8-0.05 9.05-0.05ZM37.5 0L37.5 0Q35.8 0 34.72-1.13 33.65-2.25 33.1-4.15 32.55-6.05 32.35-8.5 32.15-10.95 32.15-13.55L32.15-13.55Q32.15-15.3 32.22-17.13 32.3-18.95 32.72-20.5 33.15-22.05 34.17-23.03 35.2-24 37.1-24L37.1-24Q38.45-24 39.55-23.38 40.65-22.75 40.95-21.5L40.95-21.5Q42.1-22.55 43.87-23.03 45.65-23.5 47.55-23.5L47.55-23.5Q49.15-23.5 50.8-22.73 52.45-21.95 53.6-20.6 54.75-19.25 54.75-17.55L54.75-17.55Q54.75-16.1 53.67-14.8 52.6-13.5 50.65-13.5L50.65-13.5Q49.8-13.5 49.25-13.73 48.7-13.95 48.2-14.15 47.7-14.35 47-14.35L47-14.35Q45.15-14.35 43.62-12.88 42.1-11.4 42.1-8.9L42.1-8.9Q42.1-7.6 42.02-6.08 41.95-4.55 41.57-3.15 41.2-1.75 40.25-0.88 39.3 0 37.5 0ZM67.3 0L67.3 0Q63.55 0 60.72-1.48 57.9-2.95 56.32-5.53 54.75-8.1 54.75-11.45L54.75-11.45Q54.75-14.7 56.32-17.45 57.9-20.2 60.67-21.85 63.45-23.5 67.05-23.5L67.05-23.5Q70.4-23.5 72.8-22.15 75.2-20.8 76.47-18.73 77.75-16.65 77.75-14.35L77.75-14.35Q77.75-12.05 76.7-10.58 75.65-9.1 73.97-8.33 72.3-7.55 70.4-7.3 68.5-7.05 66.75-7.23 65-7.4 63.8-7.8L63.8-7.8Q64.7-6.35 66.07-5.83 67.45-5.3 68.97-5.38 70.5-5.45 71.75-5.7L71.75-5.7Q73.3-6.05 74.3-5.55 75.3-5.05 75.34-3.95L75.34-3.95Q75.4-3.05 74.72-2.15 74.05-1.25 72.3-0.63 70.55 0 67.3 0ZM63.95-13.9L63.95-13.9Q64.45-13.1 65.4-12.78 66.34-12.45 67.32-12.55 68.3-12.65 68.97-13.1 69.65-13.55 69.65-14.35L69.65-14.35Q69.65-15.2 68.97-15.88 68.3-16.55 66.84-16.55L66.84-16.55Q65.45-16.55 64.7-15.68 63.95-14.8 63.95-13.9ZM88.84 0L88.84 0Q84.44 0 81.84-1.45 79.24-2.9 79.24-5.2L79.24-5.2Q79.24-6.8 80.32-7.58 81.39-8.35 82.89-8.35L82.89-8.35Q84.09-8.35 84.67-7.95 85.24-7.55 85.69-7.15 86.14-6.75 86.79-6.75L86.79-6.75Q87.84-6.75 87.84-7.5L87.84-7.5Q87.84-8.5 86.67-8.95 85.49-9.4 83.74-10.2L83.74-10.2Q81.34-11.35 80.29-12.88 79.24-14.4 79.24-16L79.24-16Q79.24-17.9 80.59-19.6 81.94-21.3 84.42-22.4 86.89-23.5 90.34-23.5L90.34-23.5Q93.24-23.5 95.54-22.7 97.84-21.9 99.19-20.53 100.54-19.15 100.54-17.5L100.54-17.5Q100.54-15.95 99.54-15.15 98.54-14.35 96.94-14.35L96.94-14.35Q96.04-14.35 95.52-14.63 94.99-14.9 94.57-15.15 94.14-15.4 93.39-15.4L93.39-15.4Q92.99-15.4 92.69-15.13 92.39-14.85 92.39-14.45L92.39-14.45Q92.39-14.15 92.64-13.85 92.89-13.55 93.49-13.35L93.49-13.35Q95.04-12.85 96.52-12.08 97.99-11.3 98.97-10.08 99.94-8.85 99.94-6.95L99.94-6.95Q99.94-3.7 96.89-1.85 93.84 0 88.84 0ZM108.54 0L108.54 0Q106.04 0 104.74-1.95 103.44-3.9 102.99-8.03 102.54-12.15 102.54-18.7L102.54-18.7Q102.54-23.6 102.82-27.25 103.09-30.9 104.29-32.95 105.49-35 108.14-35L108.14-35Q110.19-35 111.24-33.88 112.29-32.75 112.67-30.93 113.04-29.1 113.09-26.93 113.14-24.75 113.14-22.6L113.14-22.6Q113.99-23 114.77-23.25 115.54-23.5 117.24-23.5L117.24-23.5Q120.79-23.5 123.19-21.75 125.59-20 126.84-17.1 128.09-14.2 128.09-10.7L128.09-10.7Q128.09-8.9 127.94-7.05 127.79-5.2 127.29-3.65 126.79-2.1 125.84-1.13 124.89-0.15 123.29-0.15L123.29-0.15Q121.24-0.15 120.27-1.07 119.29-2 119.04-3.73 118.79-5.45 118.79-7.75L118.79-7.75Q118.79-10.4 118.22-12.15 117.64-13.9 115.99-13.9L115.99-13.9Q114.34-13.9 113.72-12.15 113.09-10.4 113.04-7.75L113.04-7.75Q113.04-5.45 112.77-3.7 112.49-1.95 111.54-0.98 110.59 0 108.54 0ZM141.54-0.1L141.54-0.1Q139.64-0.1 138.49-1.45 137.34-2.8 136.76-5.18 136.19-7.55 135.99-10.7L135.99-10.7Q132.94-10.95 131.26-11.9 129.59-12.85 129.59-15.2L129.59-15.2Q129.59-17.55 131.26-18.53 132.94-19.5 135.99-19.8L135.99-19.8Q136.24-24.25 137.36-27.7 138.49-31.15 141.04-33.08 143.59-35 148.19-35L148.19-35Q150.74-35 152.66-33.8 154.59-32.6 154.59-30.05L154.59-30.05Q154.59-27.4 152.91-26.18 151.24-24.95 148.89-24.5L148.89-24.5Q147.04-24.15 146.29-22.88 145.54-21.6 145.34-19.9L145.34-19.9Q149.84-19.8 152.21-18.95 154.59-18.1 154.59-15.2L154.59-15.2Q154.59-13.3 153.49-12.33 152.39-11.35 150.31-11 148.24-10.65 145.44-10.6L145.44-10.6Q145.44-8.6 145.49-6.98 145.54-5.35 145.54-4L145.54-4Q145.54-2.4 144.89-1.55 144.24-0.7 143.31-0.4 142.39-0.1 141.54-0.1ZM167.84 0.05L167.84 0.05Q164.14 0.1 161.36-1.48 158.59-3.05 157.01-5.78 155.44-8.5 155.34-11.8L155.34-11.8Q155.28-15.2 156.89-17.82 158.49-20.45 161.34-22 164.19-23.55 167.84-23.55L167.84-23.55Q171.44-23.6 174.21-22.05 176.99-20.5 178.64-17.85 180.29-15.2 180.39-11.8L180.39-11.8Q180.44-8.55 178.84-5.88 177.24-3.2 174.39-1.63 171.53-0.05 167.84 0.05ZM167.99-7.25L167.99-7.25Q169.34-7.25 170.34-8.3 171.34-9.35 171.34-10.75L171.34-10.75Q171.34-12.15 170.34-13.18 169.34-14.2 167.99-14.2L167.99-14.2Q166.64-14.2 165.64-13.18 164.64-12.15 164.64-10.75L164.64-10.75Q164.64-9.35 165.64-8.3 166.64-7.25 167.99-7.25ZM194.38 0.05L194.38 0.05Q190.68 0.1 187.91-1.48 185.13-3.05 183.56-5.78 181.98-8.5 181.88-11.8L181.88-11.8Q181.83-15.2 183.43-17.82 185.03-20.45 187.88-22 190.73-23.55 194.38-23.55L194.38-23.55Q197.98-23.6 200.76-22.05 203.53-20.5 205.18-17.85 206.83-15.2 206.93-11.8L206.93-11.8Q206.98-8.55 205.38-5.88 203.78-3.2 200.93-1.63 198.08-0.05 194.38 0.05ZM194.53-7.25L194.53-7.25Q195.88-7.25 196.88-8.3 197.88-9.35 197.88-10.75L197.88-10.75Q197.88-12.15 196.88-13.18 195.88-14.2 194.53-14.2L194.53-14.2Q193.18-14.2 192.18-13.18 191.18-12.15 191.18-10.75L191.18-10.75Q191.18-9.35 192.18-8.3 193.18-7.25 194.53-7.25ZM220.33 0L220.33 0Q216.63 0 213.96-1.75 211.28-3.5 209.86-6.3 208.43-9.1 208.43-12.15L208.43-12.15Q208.43-16.05 210.01-18.55 211.58-21.05 214.03-22.28 216.48-23.5 219.13-23.5L219.13-23.5Q220.38-23.5 221.68-23.23 222.98-22.95 224.13-22.3L224.13-22.3Q223.93-24.45 223.26-26.53 222.58-28.6 222.58-30.75L222.58-30.75Q222.58-32.95 223.93-34 225.28-35.05 226.83-35.05L226.83-35.05Q228.63-35.05 229.93-33.9 231.23-32.75 232.16-30.85 233.08-28.95 233.63-26.58 234.18-24.2 234.43-21.7 234.68-19.2 234.68-16.9L234.68-16.9Q234.68-16.15 234.61-14.6 234.53-13.05 234.13-11.15 233.73-9.25 232.86-7.3 231.98-5.35 230.41-3.7 228.83-2.05 226.38-1.03 223.93 0 220.33 0ZM220.63-7.9L220.63-7.9Q221.98-7.9 222.98-8.93 223.98-9.95 223.98-11.35L223.98-11.35Q223.98-12.75 222.98-13.8 221.98-14.85 220.63-14.85L220.63-14.85Q219.28-14.85 218.26-13.8 217.23-12.75 217.23-11.35L217.23-11.35Q217.23-9.95 218.26-8.93 219.28-7.9 220.63-7.9Z" opacity="1" transform="matrix(1,0,0,1,0,0)" fill="black" class="wordmark-text-0" id="SvgjsPath4899" stroke-width="5" stroke="black" stroke-linejoin="round"></path></svg></g></svg></g></svg></g></svg></g></svg></g></svg></g></svg></g></mask><g mask="url(#76fef921-7c15-4af8-9495-dbbac34a2182)"><g><path d="M152.493 247.2v0c-10.845 0-20.441-3.961-28.787-11.883-8.393-7.875-14.877-20.535-19.451-37.981-4.621-17.447-6.931-40.198-6.931-68.254v0c0-19.097 3.065-36.544 9.195-52.34 6.13-15.796 14.617-29.424 25.462-40.882 10.845-11.411 23.459-20.252 37.841-26.524 14.382-6.224 29.706-9.336 45.974-9.336v0c27.349 0 47.931 4.668 61.747 14.004 13.769 9.289 20.653 22.068 20.653 38.336v0c0 12.26-2.876 21.266-8.629 27.019-5.8 5.8-13.934 9.643-24.402 11.529-10.515 1.886-22.846 2.829-36.991 2.829v0c-8.016 0-15.678 1.108-22.987 3.324-7.309 2.263-13.25 5.564-17.824 9.902-4.621 4.385-7.285 9.761-7.993 16.127v0c0 1.179-0.118 2.24-0.353 3.182v0c4.244-0.236 8.488-0.354 12.731-0.353 4.244 0 8.488 0 12.731 0v0c10.374 0 20.582 0.047 30.626 0.141 9.996 0.141 19.121 0.99 27.373 2.546 8.252 1.509 14.853 4.385 19.804 8.629 4.951 4.244 7.427 10.492 7.427 18.744v0c0 8.959-2.476 15.608-7.427 19.946-4.951 4.385-11.553 7.285-19.804 8.699-8.252 1.415-17.376 2.051-27.373 1.91-10.044-0.094-20.252-0.141-30.626-0.141v0c-3.772 0-7.474 0.047-11.104 0.141-3.678 0.141-7.403 0.212-11.176 0.212v0c0.472 3.301 0.825 6.719 1.061 10.256 0.236 3.536 0.354 7.191 0.354 10.963v0c0 6.601-0.872 12.896-2.617 18.885-1.792 6.036-4.928 10.94-9.407 14.712-4.48 3.772-10.845 5.658-19.097 5.658z" fill="#85144b" fill-rule="nonzero" stroke="none" stroke-width="1" stroke-linecap="butt" stroke-linejoin="miter" stroke-miterlimit="10" stroke-dasharray="" stroke-dashoffset="0" font-family="none" font-weight="none" font-size="none" text-anchor="none" style="mix-blend-mode: normal" data-fill-palette-color="tertiary"></path></g></g><g transform="matrix(1,0,0,1,0,90.34153807442294)"><svg viewBox="0 0 395.52 66.51692385115409" height="66.51692385115409" width="395.52"><g><svg viewBox="0 0 395.52 66.51692385115409" height="66.51692385115409" width="395.52"><g><svg viewBox="0 0 395.52 66.51692385115409" height="66.51692385115409" width="395.52"><g><svg viewBox="0 0 395.52 66.51692385115409" height="66.51692385115409" width="395.52"><g id="textblocktransform"><svg viewBox="0 0 395.52 66.51692385115409" height="66.51692385115409" width="395.52" id="textblock"><g><svg viewBox="0 0 395.52 66.51692385115409" height="66.51692385115409" width="395.52"><g transform="matrix(1,0,0,1,0,0)"><svg width="395.52" viewBox="-1.75 -38.05 239.43 41.099999999999994" height="66.51692385115409" data-palette-color="url(#615c7cf0-a797-497b-b385-2732abc73bdc)"></svg></g></svg></g></svg></g></svg></g></svg></g></svg></g></svg></g></svg></g><defs></defs><mask id="7bea644d-e6b0-4dc8-8b57-a13a09bc7129"><g id="SvgjsG4911"><svg viewBox="0 0 395.52 247.2" height="247.2" width="395.52"><g><svg></svg></g><g><svg viewBox="0 0 395.52 247.2" height="247.2" width="395.52"><mask id="SvgjsMask4910"><rect width="395.52" height="247.2" fill="black"></rect><g transform="matrix(1,0,0,1,0,90.34153807442294)" id="SvgjsG4909"><svg viewBox="0 0 395.52 66.51692385115409" height="66.51692385115409" width="395.52"><g><svg viewBox="0 0 395.52 66.51692385115409" height="66.51692385115409" width="395.52"><g><svg viewBox="0 0 395.52 66.51692385115409" height="66.51692385115409" width="395.52"><g><svg viewBox="0 0 395.52 66.51692385115409" height="66.51692385115409" width="395.52"><g id="SvgjsG4908"><svg viewBox="0 0 395.52 66.51692385115409" height="66.51692385115409" width="395.52" id="SvgjsSvg4907"><g><svg viewBox="0 0 395.52 66.51692385115409" height="66.51692385115409" width="395.52"><g transform="matrix(1,0,0,1,0,0)"><svg width="395.52" viewBox="-1.75 -38.05 239.43 41.099999999999994" height="66.51692385115409" data-palette-color="url(#615c7cf0-a797-497b-b385-2732abc73bdc)"><path d="M9.05-0.05L9.05-0.05Q6.75-0.05 4.98-1.73 3.2-3.4 2.23-7.1 1.25-10.8 1.25-16.75L1.25-16.75Q1.25-20.8 2.55-24.15 3.85-27.5 6.15-29.93 8.45-32.35 11.5-33.68 14.55-35 18-35L18-35Q23.8-35 26.73-33.02 29.65-31.05 29.65-27.6L29.65-27.6Q29.65-25 28.43-23.78 27.2-22.55 24.98-22.15 22.75-21.75 19.75-21.75L19.75-21.75Q18.05-21.75 16.5-21.28 14.95-20.8 13.98-19.88 13-18.95 12.85-17.6L12.85-17.6Q12.85-17.35 12.8-17.15L12.8-17.15Q13.7-17.2 14.6-17.2 15.5-17.2 16.4-17.2L16.4-17.2Q18.6-17.2 20.73-17.18 22.85-17.15 24.6-16.82 26.35-16.5 27.4-15.6 28.45-14.7 28.45-12.95L28.45-12.95Q28.45-11.05 27.4-10.13 26.35-9.2 24.6-8.9 22.85-8.6 20.73-8.63 18.6-8.65 16.4-8.65L16.4-8.65Q15.6-8.65 14.83-8.63 14.05-8.6 13.25-8.6L13.25-8.6Q13.35-7.9 13.4-7.15 13.45-6.4 13.45-5.6L13.45-5.6Q13.45-4.2 13.08-2.93 12.7-1.65 11.75-0.85 10.8-0.05 9.05-0.05ZM37.5 0L37.5 0Q35.8 0 34.72-1.13 33.65-2.25 33.1-4.15 32.55-6.05 32.35-8.5 32.15-10.95 32.15-13.55L32.15-13.55Q32.15-15.3 32.22-17.13 32.3-18.95 32.72-20.5 33.15-22.05 34.17-23.03 35.2-24 37.1-24L37.1-24Q38.45-24 39.55-23.38 40.65-22.75 40.95-21.5L40.95-21.5Q42.1-22.55 43.87-23.03 45.65-23.5 47.55-23.5L47.55-23.5Q49.15-23.5 50.8-22.73 52.45-21.95 53.6-20.6 54.75-19.25 54.75-17.55L54.75-17.55Q54.75-16.1 53.67-14.8 52.6-13.5 50.65-13.5L50.65-13.5Q49.8-13.5 49.25-13.73 48.7-13.95 48.2-14.15 47.7-14.35 47-14.35L47-14.35Q45.15-14.35 43.62-12.88 42.1-11.4 42.1-8.9L42.1-8.9Q42.1-7.6 42.02-6.08 41.95-4.55 41.57-3.15 41.2-1.75 40.25-0.88 39.3 0 37.5 0ZM67.3 0L67.3 0Q63.55 0 60.72-1.48 57.9-2.95 56.32-5.53 54.75-8.1 54.75-11.45L54.75-11.45Q54.75-14.7 56.32-17.45 57.9-20.2 60.67-21.85 63.45-23.5 67.05-23.5L67.05-23.5Q70.4-23.5 72.8-22.15 75.2-20.8 76.47-18.73 77.75-16.65 77.75-14.35L77.75-14.35Q77.75-12.05 76.7-10.58 75.65-9.1 73.97-8.33 72.3-7.55 70.4-7.3 68.5-7.05 66.75-7.23 65-7.4 63.8-7.8L63.8-7.8Q64.7-6.35 66.07-5.83 67.45-5.3 68.97-5.38 70.5-5.45 71.75-5.7L71.75-5.7Q73.3-6.05 74.3-5.55 75.3-5.05 75.34-3.95L75.34-3.95Q75.4-3.05 74.72-2.15 74.05-1.25 72.3-0.63 70.55 0 67.3 0ZM63.95-13.9L63.95-13.9Q64.45-13.1 65.4-12.78 66.34-12.45 67.32-12.55 68.3-12.65 68.97-13.1 69.65-13.55 69.65-14.35L69.65-14.35Q69.65-15.2 68.97-15.88 68.3-16.55 66.84-16.55L66.84-16.55Q65.45-16.55 64.7-15.68 63.95-14.8 63.95-13.9ZM88.84 0L88.84 0Q84.44 0 81.84-1.45 79.24-2.9 79.24-5.2L79.24-5.2Q79.24-6.8 80.32-7.58 81.39-8.35 82.89-8.35L82.89-8.35Q84.09-8.35 84.67-7.95 85.24-7.55 85.69-7.15 86.14-6.75 86.79-6.75L86.79-6.75Q87.84-6.75 87.84-7.5L87.84-7.5Q87.84-8.5 86.67-8.95 85.49-9.4 83.74-10.2L83.74-10.2Q81.34-11.35 80.29-12.88 79.24-14.4 79.24-16L79.24-16Q79.24-17.9 80.59-19.6 81.94-21.3 84.42-22.4 86.89-23.5 90.34-23.5L90.34-23.5Q93.24-23.5 95.54-22.7 97.84-21.9 99.19-20.53 100.54-19.15 100.54-17.5L100.54-17.5Q100.54-15.95 99.54-15.15 98.54-14.35 96.94-14.35L96.94-14.35Q96.04-14.35 95.52-14.63 94.99-14.9 94.57-15.15 94.14-15.4 93.39-15.4L93.39-15.4Q92.99-15.4 92.69-15.13 92.39-14.85 92.39-14.45L92.39-14.45Q92.39-14.15 92.64-13.85 92.89-13.55 93.49-13.35L93.49-13.35Q95.04-12.85 96.52-12.08 97.99-11.3 98.97-10.08 99.94-8.85 99.94-6.95L99.94-6.95Q99.94-3.7 96.89-1.85 93.84 0 88.84 0ZM108.54 0L108.54 0Q106.04 0 104.74-1.95 103.44-3.9 102.99-8.03 102.54-12.15 102.54-18.7L102.54-18.7Q102.54-23.6 102.82-27.25 103.09-30.9 104.29-32.95 105.49-35 108.14-35L108.14-35Q110.19-35 111.24-33.88 112.29-32.75 112.67-30.93 113.04-29.1 113.09-26.93 113.14-24.75 113.14-22.6L113.14-22.6Q113.99-23 114.77-23.25 115.54-23.5 117.24-23.5L117.24-23.5Q120.79-23.5 123.19-21.75 125.59-20 126.84-17.1 128.09-14.2 128.09-10.7L128.09-10.7Q128.09-8.9 127.94-7.05 127.79-5.2 127.29-3.65 126.79-2.1 125.84-1.13 124.89-0.15 123.29-0.15L123.29-0.15Q121.24-0.15 120.27-1.07 119.29-2 119.04-3.73 118.79-5.45 118.79-7.75L118.79-7.75Q118.79-10.4 118.22-12.15 117.64-13.9 115.99-13.9L115.99-13.9Q114.34-13.9 113.72-12.15 113.09-10.4 113.04-7.75L113.04-7.75Q113.04-5.45 112.77-3.7 112.49-1.95 111.54-0.98 110.59 0 108.54 0ZM141.54-0.1L141.54-0.1Q139.64-0.1 138.49-1.45 137.34-2.8 136.76-5.18 136.19-7.55 135.99-10.7L135.99-10.7Q132.94-10.95 131.26-11.9 129.59-12.85 129.59-15.2L129.59-15.2Q129.59-17.55 131.26-18.53 132.94-19.5 135.99-19.8L135.99-19.8Q136.24-24.25 137.36-27.7 138.49-31.15 141.04-33.08 143.59-35 148.19-35L148.19-35Q150.74-35 152.66-33.8 154.59-32.6 154.59-30.05L154.59-30.05Q154.59-27.4 152.91-26.18 151.24-24.95 148.89-24.5L148.89-24.5Q147.04-24.15 146.29-22.88 145.54-21.6 145.34-19.9L145.34-19.9Q149.84-19.8 152.21-18.95 154.59-18.1 154.59-15.2L154.59-15.2Q154.59-13.3 153.49-12.33 152.39-11.35 150.31-11 148.24-10.65 145.44-10.6L145.44-10.6Q145.44-8.6 145.49-6.98 145.54-5.35 145.54-4L145.54-4Q145.54-2.4 144.89-1.55 144.24-0.7 143.31-0.4 142.39-0.1 141.54-0.1ZM167.84 0.05L167.84 0.05Q164.14 0.1 161.36-1.48 158.59-3.05 157.01-5.78 155.44-8.5 155.34-11.8L155.34-11.8Q155.28-15.2 156.89-17.82 158.49-20.45 161.34-22 164.19-23.55 167.84-23.55L167.84-23.55Q171.44-23.6 174.21-22.05 176.99-20.5 178.64-17.85 180.29-15.2 180.39-11.8L180.39-11.8Q180.44-8.55 178.84-5.88 177.24-3.2 174.39-1.63 171.53-0.05 167.84 0.05ZM167.99-7.25L167.99-7.25Q169.34-7.25 170.34-8.3 171.34-9.35 171.34-10.75L171.34-10.75Q171.34-12.15 170.34-13.18 169.34-14.2 167.99-14.2L167.99-14.2Q166.64-14.2 165.64-13.18 164.64-12.15 164.64-10.75L164.64-10.75Q164.64-9.35 165.64-8.3 166.64-7.25 167.99-7.25ZM194.38 0.05L194.38 0.05Q190.68 0.1 187.91-1.48 185.13-3.05 183.56-5.78 181.98-8.5 181.88-11.8L181.88-11.8Q181.83-15.2 183.43-17.82 185.03-20.45 187.88-22 190.73-23.55 194.38-23.55L194.38-23.55Q197.98-23.6 200.76-22.05 203.53-20.5 205.18-17.85 206.83-15.2 206.93-11.8L206.93-11.8Q206.98-8.55 205.38-5.88 203.78-3.2 200.93-1.63 198.08-0.05 194.38 0.05ZM194.53-7.25L194.53-7.25Q195.88-7.25 196.88-8.3 197.88-9.35 197.88-10.75L197.88-10.75Q197.88-12.15 196.88-13.18 195.88-14.2 194.53-14.2L194.53-14.2Q193.18-14.2 192.18-13.18 191.18-12.15 191.18-10.75L191.18-10.75Q191.18-9.35 192.18-8.3 193.18-7.25 194.53-7.25ZM220.33 0L220.33 0Q216.63 0 213.96-1.75 211.28-3.5 209.86-6.3 208.43-9.1 208.43-12.15L208.43-12.15Q208.43-16.05 210.01-18.55 211.58-21.05 214.03-22.28 216.48-23.5 219.13-23.5L219.13-23.5Q220.38-23.5 221.68-23.23 222.98-22.95 224.13-22.3L224.13-22.3Q223.93-24.45 223.26-26.53 222.58-28.6 222.58-30.75L222.58-30.75Q222.58-32.95 223.93-34 225.28-35.05 226.83-35.05L226.83-35.05Q228.63-35.05 229.93-33.9 231.23-32.75 232.16-30.85 233.08-28.95 233.63-26.58 234.18-24.2 234.43-21.7 234.68-19.2 234.68-16.9L234.68-16.9Q234.68-16.15 234.61-14.6 234.53-13.05 234.13-11.15 233.73-9.25 232.86-7.3 231.98-5.35 230.41-3.7 228.83-2.05 226.38-1.03 223.93 0 220.33 0ZM220.63-7.9L220.63-7.9Q221.98-7.9 222.98-8.93 223.98-9.95 223.98-11.35L223.98-11.35Q223.98-12.75 222.98-13.8 221.98-14.85 220.63-14.85L220.63-14.85Q219.28-14.85 218.26-13.8 217.23-12.75 217.23-11.35L217.23-11.35Q217.23-9.95 218.26-8.93 219.28-7.9 220.63-7.9Z" opacity="1" transform="matrix(1,0,0,1,0,0)" fill="black" class="wordmark-text-0" id="SvgjsPath4906" stroke-width="5" stroke="black" stroke-linejoin="round"></path></svg></g></svg></g></svg></g></svg></g></svg></g></svg></g></svg></g></mask><g mask="url(#76fef921-7c15-4af8-9495-dbbac34a2182)"><g><path d="M152.493 247.2v0c-10.845 0-20.441-3.961-28.787-11.883-8.393-7.875-14.877-20.535-19.451-37.981-4.621-17.447-6.931-40.198-6.931-68.254v0c0-19.097 3.065-36.544 9.195-52.34 6.13-15.796 14.617-29.424 25.462-40.882 10.845-11.411 23.459-20.252 37.841-26.524 14.382-6.224 29.706-9.336 45.974-9.336v0c27.349 0 47.931 4.668 61.747 14.004 13.769 9.289 20.653 22.068 20.653 38.336v0c0 12.26-2.876 21.266-8.629 27.019-5.8 5.8-13.934 9.643-24.402 11.529-10.515 1.886-22.846 2.829-36.991 2.829v0c-8.016 0-15.678 1.108-22.987 3.324-7.309 2.263-13.25 5.564-17.824 9.902-4.621 4.385-7.285 9.761-7.993 16.127v0c0 1.179-0.118 2.24-0.353 3.182v0c4.244-0.236 8.488-0.354 12.731-0.353 4.244 0 8.488 0 12.731 0v0c10.374 0 20.582 0.047 30.626 0.141 9.996 0.141 19.121 0.99 27.373 2.546 8.252 1.509 14.853 4.385 19.804 8.629 4.951 4.244 7.427 10.492 7.427 18.744v0c0 8.959-2.476 15.608-7.427 19.946-4.951 4.385-11.553 7.285-19.804 8.699-8.252 1.415-17.376 2.051-27.373 1.91-10.044-0.094-20.252-0.141-30.626-0.141v0c-3.772 0-7.474 0.047-11.104 0.141-3.678 0.141-7.403 0.212-11.176 0.212v0c0.472 3.301 0.825 6.719 1.061 10.256 0.236 3.536 0.354 7.191 0.354 10.963v0c0 6.601-0.872 12.896-2.617 18.885-1.792 6.036-4.928 10.94-9.407 14.712-4.48 3.772-10.845 5.658-19.097 5.658z" fill="black" fill-rule="nonzero" stroke="none" stroke-width="1" stroke-linecap="butt" stroke-linejoin="miter" stroke-miterlimit="10" stroke-dasharray="" stroke-dashoffset="0" font-family="none" font-weight="none" font-size="none" text-anchor="none" style="mix-blend-mode: normal"></path></g></g><g transform="matrix(1,0,0,1,0,90.34153807442294)"><svg viewBox="0 0 395.52 66.51692385115409" height="66.51692385115409" width="395.52"><g><svg viewBox="0 0 395.52 66.51692385115409" height="66.51692385115409" width="395.52"><g><svg viewBox="0 0 395.52 66.51692385115409" height="66.51692385115409" width="395.52"><g><svg viewBox="0 0 395.52 66.51692385115409" height="66.51692385115409" width="395.52"><g id="SvgjsG4905"><svg viewBox="0 0 395.52 66.51692385115409" height="66.51692385115409" width="395.52" id="SvgjsSvg4904"><g><svg viewBox="0 0 395.52 66.51692385115409" height="66.51692385115409" width="395.52"><g transform="matrix(1,0,0,1,0,0)"><svg width="395.52" viewBox="-1.75 -38.05 239.43 41.099999999999994" height="66.51692385115409" data-palette-color="url(#615c7cf0-a797-497b-b385-2732abc73bdc)"><path d="M9.05-0.05L9.05-0.05Q6.75-0.05 4.98-1.73 3.2-3.4 2.23-7.1 1.25-10.8 1.25-16.75L1.25-16.75Q1.25-20.8 2.55-24.15 3.85-27.5 6.15-29.93 8.45-32.35 11.5-33.68 14.55-35 18-35L18-35Q23.8-35 26.73-33.02 29.65-31.05 29.65-27.6L29.65-27.6Q29.65-25 28.43-23.78 27.2-22.55 24.98-22.15 22.75-21.75 19.75-21.75L19.75-21.75Q18.05-21.75 16.5-21.28 14.95-20.8 13.98-19.88 13-18.95 12.85-17.6L12.85-17.6Q12.85-17.35 12.8-17.15L12.8-17.15Q13.7-17.2 14.6-17.2 15.5-17.2 16.4-17.2L16.4-17.2Q18.6-17.2 20.73-17.18 22.85-17.15 24.6-16.82 26.35-16.5 27.4-15.6 28.45-14.7 28.45-12.95L28.45-12.95Q28.45-11.05 27.4-10.13 26.35-9.2 24.6-8.9 22.85-8.6 20.73-8.63 18.6-8.65 16.4-8.65L16.4-8.65Q15.6-8.65 14.83-8.63 14.05-8.6 13.25-8.6L13.25-8.6Q13.35-7.9 13.4-7.15 13.45-6.4 13.45-5.6L13.45-5.6Q13.45-4.2 13.08-2.93 12.7-1.65 11.75-0.85 10.8-0.05 9.05-0.05ZM37.5 0L37.5 0Q35.8 0 34.72-1.13 33.65-2.25 33.1-4.15 32.55-6.05 32.35-8.5 32.15-10.95 32.15-13.55L32.15-13.55Q32.15-15.3 32.22-17.13 32.3-18.95 32.72-20.5 33.15-22.05 34.17-23.03 35.2-24 37.1-24L37.1-24Q38.45-24 39.55-23.38 40.65-22.75 40.95-21.5L40.95-21.5Q42.1-22.55 43.87-23.03 45.65-23.5 47.55-23.5L47.55-23.5Q49.15-23.5 50.8-22.73 52.45-21.95 53.6-20.6 54.75-19.25 54.75-17.55L54.75-17.55Q54.75-16.1 53.67-14.8 52.6-13.5 50.65-13.5L50.65-13.5Q49.8-13.5 49.25-13.73 48.7-13.95 48.2-14.15 47.7-14.35 47-14.35L47-14.35Q45.15-14.35 43.62-12.88 42.1-11.4 42.1-8.9L42.1-8.9Q42.1-7.6 42.02-6.08 41.95-4.55 41.57-3.15 41.2-1.75 40.25-0.88 39.3 0 37.5 0ZM67.3 0L67.3 0Q63.55 0 60.72-1.48 57.9-2.95 56.32-5.53 54.75-8.1 54.75-11.45L54.75-11.45Q54.75-14.7 56.32-17.45 57.9-20.2 60.67-21.85 63.45-23.5 67.05-23.5L67.05-23.5Q70.4-23.5 72.8-22.15 75.2-20.8 76.47-18.73 77.75-16.65 77.75-14.35L77.75-14.35Q77.75-12.05 76.7-10.58 75.65-9.1 73.97-8.33 72.3-7.55 70.4-7.3 68.5-7.05 66.75-7.23 65-7.4 63.8-7.8L63.8-7.8Q64.7-6.35 66.07-5.83 67.45-5.3 68.97-5.38 70.5-5.45 71.75-5.7L71.75-5.7Q73.3-6.05 74.3-5.55 75.3-5.05 75.34-3.95L75.34-3.95Q75.4-3.05 74.72-2.15 74.05-1.25 72.3-0.63 70.55 0 67.3 0ZM63.95-13.9L63.95-13.9Q64.45-13.1 65.4-12.78 66.34-12.45 67.32-12.55 68.3-12.65 68.97-13.1 69.65-13.55 69.65-14.35L69.65-14.35Q69.65-15.2 68.97-15.88 68.3-16.55 66.84-16.55L66.84-16.55Q65.45-16.55 64.7-15.68 63.95-14.8 63.95-13.9ZM88.84 0L88.84 0Q84.44 0 81.84-1.45 79.24-2.9 79.24-5.2L79.24-5.2Q79.24-6.8 80.32-7.58 81.39-8.35 82.89-8.35L82.89-8.35Q84.09-8.35 84.67-7.95 85.24-7.55 85.69-7.15 86.14-6.75 86.79-6.75L86.79-6.75Q87.84-6.75 87.84-7.5L87.84-7.5Q87.84-8.5 86.67-8.95 85.49-9.4 83.74-10.2L83.74-10.2Q81.34-11.35 80.29-12.88 79.24-14.4 79.24-16L79.24-16Q79.24-17.9 80.59-19.6 81.94-21.3 84.42-22.4 86.89-23.5 90.34-23.5L90.34-23.5Q93.24-23.5 95.54-22.7 97.84-21.9 99.19-20.53 100.54-19.15 100.54-17.5L100.54-17.5Q100.54-15.95 99.54-15.15 98.54-14.35 96.94-14.35L96.94-14.35Q96.04-14.35 95.52-14.63 94.99-14.9 94.57-15.15 94.14-15.4 93.39-15.4L93.39-15.4Q92.99-15.4 92.69-15.13 92.39-14.85 92.39-14.45L92.39-14.45Q92.39-14.15 92.64-13.85 92.89-13.55 93.49-13.35L93.49-13.35Q95.04-12.85 96.52-12.08 97.99-11.3 98.97-10.08 99.94-8.85 99.94-6.95L99.94-6.95Q99.94-3.7 96.89-1.85 93.84 0 88.84 0ZM108.54 0L108.54 0Q106.04 0 104.74-1.95 103.44-3.9 102.99-8.03 102.54-12.15 102.54-18.7L102.54-18.7Q102.54-23.6 102.82-27.25 103.09-30.9 104.29-32.95 105.49-35 108.14-35L108.14-35Q110.19-35 111.24-33.88 112.29-32.75 112.67-30.93 113.04-29.1 113.09-26.93 113.14-24.75 113.14-22.6L113.14-22.6Q113.99-23 114.77-23.25 115.54-23.5 117.24-23.5L117.24-23.5Q120.79-23.5 123.19-21.75 125.59-20 126.84-17.1 128.09-14.2 128.09-10.7L128.09-10.7Q128.09-8.9 127.94-7.05 127.79-5.2 127.29-3.65 126.79-2.1 125.84-1.13 124.89-0.15 123.29-0.15L123.29-0.15Q121.24-0.15 120.27-1.07 119.29-2 119.04-3.73 118.79-5.45 118.79-7.75L118.79-7.75Q118.79-10.4 118.22-12.15 117.64-13.9 115.99-13.9L115.99-13.9Q114.34-13.9 113.72-12.15 113.09-10.4 113.04-7.75L113.04-7.75Q113.04-5.45 112.77-3.7 112.49-1.95 111.54-0.98 110.59 0 108.54 0ZM141.54-0.1L141.54-0.1Q139.64-0.1 138.49-1.45 137.34-2.8 136.76-5.18 136.19-7.55 135.99-10.7L135.99-10.7Q132.94-10.95 131.26-11.9 129.59-12.85 129.59-15.2L129.59-15.2Q129.59-17.55 131.26-18.53 132.94-19.5 135.99-19.8L135.99-19.8Q136.24-24.25 137.36-27.7 138.49-31.15 141.04-33.08 143.59-35 148.19-35L148.19-35Q150.74-35 152.66-33.8 154.59-32.6 154.59-30.05L154.59-30.05Q154.59-27.4 152.91-26.18 151.24-24.95 148.89-24.5L148.89-24.5Q147.04-24.15 146.29-22.88 145.54-21.6 145.34-19.9L145.34-19.9Q149.84-19.8 152.21-18.95 154.59-18.1 154.59-15.2L154.59-15.2Q154.59-13.3 153.49-12.33 152.39-11.35 150.31-11 148.24-10.65 145.44-10.6L145.44-10.6Q145.44-8.6 145.49-6.98 145.54-5.35 145.54-4L145.54-4Q145.54-2.4 144.89-1.55 144.24-0.7 143.31-0.4 142.39-0.1 141.54-0.1ZM167.84 0.05L167.84 0.05Q164.14 0.1 161.36-1.48 158.59-3.05 157.01-5.78 155.44-8.5 155.34-11.8L155.34-11.8Q155.28-15.2 156.89-17.82 158.49-20.45 161.34-22 164.19-23.55 167.84-23.55L167.84-23.55Q171.44-23.6 174.21-22.05 176.99-20.5 178.64-17.85 180.29-15.2 180.39-11.8L180.39-11.8Q180.44-8.55 178.84-5.88 177.24-3.2 174.39-1.63 171.53-0.05 167.84 0.05ZM167.99-7.25L167.99-7.25Q169.34-7.25 170.34-8.3 171.34-9.35 171.34-10.75L171.34-10.75Q171.34-12.15 170.34-13.18 169.34-14.2 167.99-14.2L167.99-14.2Q166.64-14.2 165.64-13.18 164.64-12.15 164.64-10.75L164.64-10.75Q164.64-9.35 165.64-8.3 166.64-7.25 167.99-7.25ZM194.38 0.05L194.38 0.05Q190.68 0.1 187.91-1.48 185.13-3.05 183.56-5.78 181.98-8.5 181.88-11.8L181.88-11.8Q181.83-15.2 183.43-17.82 185.03-20.45 187.88-22 190.73-23.55 194.38-23.55L194.38-23.55Q197.98-23.6 200.76-22.05 203.53-20.5 205.18-17.85 206.83-15.2 206.93-11.8L206.93-11.8Q206.98-8.55 205.38-5.88 203.78-3.2 200.93-1.63 198.08-0.05 194.38 0.05ZM194.53-7.25L194.53-7.25Q195.88-7.25 196.88-8.3 197.88-9.35 197.88-10.75L197.88-10.75Q197.88-12.15 196.88-13.18 195.88-14.2 194.53-14.2L194.53-14.2Q193.18-14.2 192.18-13.18 191.18-12.15 191.18-10.75L191.18-10.75Q191.18-9.35 192.18-8.3 193.18-7.25 194.53-7.25ZM220.33 0L220.33 0Q216.63 0 213.96-1.75 211.28-3.5 209.86-6.3 208.43-9.1 208.43-12.15L208.43-12.15Q208.43-16.05 210.01-18.55 211.58-21.05 214.03-22.28 216.48-23.5 219.13-23.5L219.13-23.5Q220.38-23.5 221.68-23.23 222.98-22.95 224.13-22.3L224.13-22.3Q223.93-24.45 223.26-26.53 222.58-28.6 222.58-30.75L222.58-30.75Q222.58-32.95 223.93-34 225.28-35.05 226.83-35.05L226.83-35.05Q228.63-35.05 229.93-33.9 231.23-32.75 232.16-30.85 233.08-28.95 233.63-26.58 234.18-24.2 234.43-21.7 234.68-19.2 234.68-16.9L234.68-16.9Q234.68-16.15 234.61-14.6 234.53-13.05 234.13-11.15 233.73-9.25 232.86-7.3 231.98-5.35 230.41-3.7 228.83-2.05 226.38-1.03 223.93 0 220.33 0ZM220.63-7.9L220.63-7.9Q221.98-7.9 222.98-8.93 223.98-9.95 223.98-11.35L223.98-11.35Q223.98-12.75 222.98-13.8 221.98-14.85 220.63-14.85L220.63-14.85Q219.28-14.85 218.26-13.8 217.23-12.75 217.23-11.35L217.23-11.35Q217.23-9.95 218.26-8.93 219.28-7.9 220.63-7.9Z" opacity="1" transform="matrix(1,0,0,1,0,0)" fill="white" class="wordmark-text-0" id="SvgjsPath4903"></path></svg></g></svg></g></svg></g></svg></g></svg></g></svg></g></svg></g></svg></g><defs><mask></mask></defs></svg><rect width="395.52" height="247.2" fill="black" stroke="none" visibility="hidden"></rect></g></mask><linearGradient x1="0" x2="1" y1="0.5" y2="0.5" id="615c7cf0-a797-497b-b385-2732abc73bdc"><stop stop-color="#ffa62e" offset="0"></stop><stop stop-color="#f71b3d" offset="1"></stop></linearGradient><rect width="395.52" height="247.2" fill="url(#615c7cf0-a797-497b-b385-2732abc73bdc)" mask="url(#7bea644d-e6b0-4dc8-8b57-a13a09bc7129)" data-fill-palette-color="primary"></rect></svg><rect width="395.52" height="247.2" fill="none" stroke="none" visibility="hidden"></rect></g></svg></g></svg>